<?xml version="1.0" encoding="UTF-8"?>
<!DOCTYPE svg PUBLIC "-//W3C//DTD SVG 1.1//EN" "http://www.w3.org/Graphics/SVG/1.1/DTD/svg11.dtd">
<!-- Creator: CorelDRAW X6 -->
<svg xmlns="http://www.w3.org/2000/svg" xml:space="preserve" width="100%" height="100%" version="1.1" style="shape-rendering:geometricPrecision; text-rendering:geometricPrecision; image-rendering:optimizeQuality; fill-rule:evenodd; clip-rule:evenodd"
viewBox="0 0 500 500"
 xmlns:xlink="http://www.w3.org/1999/xlink">
 <defs>
  <style type="text/css">
   <![CDATA[
    .fil2 {fill:#008EED}
    .fil3 {fill:#17A2FF}
    .fil5 {fill:#202020}
    .fil0 {fill:#383838}
    .fil1 {fill:#484848}
    .fil7 {fill:#6FAE00}
    .fil4 {fill:#B1B1B1}
    .fil6 {fill:#E8F6FF}
    .fil8 {fill:#ED2F00}
   ]]>
  </style>
 </defs>
 <g id="Layer_x0020_1">
  <metadata id="CorelCorpID_0Corel-Layer"/>
  <rect class="fil0" x="122" y="20" width="256" height="460" rx="26" ry="24"/>
  <path class="fil1" d="M184 20l168 0c14,0 26,12 26,26l0 349c-112,-88 -186,-223 -194,-375z"/>
  <rect class="fil2" x="140" y="65" width="220" height="350"/>
  <path class="fil3" d="M189 65l171 0 0 315c-92,-78 -154,-189 -171,-315z"/>
  <circle class="fil4" cx="250" cy="445" r="20"/>
  <circle class="fil5" cx="225" cy="40" r="5"/>
  <circle class="fil5" cx="250" cy="40" r="5"/>
  <circle class="fil5" cx="275" cy="40" r="5"/>
  <circle class="fil6" cx="160" cy="45" r="7"/>
  <path class="fil7" d="M186 441c3,1 6,3 6,7 0,1 -1,3 -2,3 -2,0 -4,-1 -5,-2 0,0 -2,-3 -2,-4 0,0 -1,-2 -3,-2 -2,-1 -8,-1 -10,0 -2,0 -3,2 -3,2 0,1 -2,4 -2,4 -1,1 -3,2 -5,2 -1,0 -2,-2 -2,-3 0,-4 3,-6 6,-7 7,-2 15,-2 22,0z"/>
  <path class="fil8" d="M336 441c3,1 6,3 6,7 0,1 -1,3 -2,3 -1,0 -4,-1 -5,-2 0,0 -2,-3 -2,-4 0,0 -1,-2 -3,-2 -2,-1 -8,-1 -10,0 -2,0 -3,2 -3,2 0,1 -2,4 -2,4 -1,1 -3,2 -5,2 -1,0 -2,-2 -2,-3 0,-4 3,-6 6,-7 7,-2 15,-2 22,0zm-8 5l1 1c0,0 0,0 0,1l-2 1c0,1 0,1 0,1l2 2c0,0 0,0 0,0l-1 2c-1,0 -1,0 -1,0l-2 -2c0,0 0,0 0,0l-2 2c0,0 0,0 -1,0l-1 -2c0,0 0,0 0,0l2 -2c0,0 0,0 0,-1l-2 -1c0,-1 0,-1 0,-1l1 -1c1,0 1,0 1,0l2 2c0,0 0,0 0,0l2 -2c0,0 0,0 1,0z"/>
 </g>
</svg>
