<?xml version="1.0" ?><svg enable-background="new 0 0 512 512" id="Layer_1" version="1.1" viewBox="0 0 512 512" xml:space="preserve" xmlns="http://www.w3.org/2000/svg" xmlns:xlink="http://www.w3.org/1999/xlink"><g><g><linearGradient gradientUnits="userSpaceOnUse" id="SVGID_1_" x1="-0.0000027" x2="512" y1="256" y2="256"><stop offset="0" style="stop-color:#8DC63F"/><stop offset="1" style="stop-color:#76B83F"/></linearGradient><circle cx="256" cy="256" fill="url(#SVGID_1_)" r="256"/><linearGradient gradientUnits="userSpaceOnUse" id="SVGID_2_" x1="42.6666641" x2="469.3333435" y1="256.0005188" y2="256.0005188"><stop offset="0" style="stop-color:#76B83F"/><stop offset="1" style="stop-color:#8DC63F"/></linearGradient><path d="M256,469.3338623c-117.631012,0-213.3333435-95.7018738-213.3333435-213.3333435    c0-117.6309204,95.7023239-213.333313,213.3333435-213.333313c117.6362,0,213.3333435,95.7024002,213.3333435,213.333313    C469.3333435,373.6319885,373.6362,469.3338623,256,469.3338623z" fill="url(#SVGID_2_)"/></g><g><path d="M144,144v44.4384003h240V144H144z M295.4154053,174.1685333H173.0564575v-10h122.3589478V174.1685333z     M335.4933472,174.1685333h-10v-10h10V174.1685333z M356.508728,174.1685333h-10v-10h10V174.1685333z" opacity="0.3"/><path d="M144,384h240V198.4384003H144V384z M207.8319244,285.5455933h51.1669464v-49.8607941h10v49.8607941    h51.1717834v10h-51.1717834v49.8608093h-10v-49.8608093h-51.1669464V285.5455933z" opacity="0.3"/></g><g><path d="M136,136v44.4384003h240V136H136z M287.4154053,166.1685333H165.0564575v-10h122.3589478V166.1685333z     M327.4933472,166.1685333h-10v-10h10V166.1685333z M348.508728,166.1685333h-10v-10h10V166.1685333z" fill="#FFFFFF"/><path d="M136,376h240V190.4384003H136V376z M199.8319244,277.5455933h51.1669312v-49.8607941h10.0000153    v49.8607941h51.1717834v10h-51.1717834v49.8608093h-10.0000153v-49.8608093h-51.1669312V277.5455933z" fill="#FFFFFF"/></g></g></svg>